<?xml version="1.0" encoding="UTF-8"?> <svg xmlns="http://www.w3.org/2000/svg" width="1374" height="204" viewBox="0 0 1374 204" fill="none"> <path d="M110.417 23.1388C107.313 22.829 104.542 22.1907 102.106 21.2239C99.6822 20.1378 97.3894 18.9442 95.228 17.6431C93.0665 16.342 90.8334 15.1543 88.5287 14.0801C86.224 13.0059 83.5791 12.3198 80.5939 12.0218C77.1311 11.6762 74.0804 12.035 71.4418 13.0982C68.9345 14.0539 66.6123 15.5707 64.4754 17.6488L57.847 9.75138C60.8434 6.31198 64.234 3.7561 68.0188 2.08374C71.9349 0.303888 76.4005 -0.335752 81.4156 0.164819C84.8784 0.510452 87.8816 1.23229 90.4251 2.33034C92.9686 3.4284 95.3211 4.62798 97.4826 5.92909C99.644 7.23019 101.817 8.4119 104.003 9.47419C106.2 10.4171 108.672 11.0256 111.418 11.2997C114.523 11.6096 117.329 11.2867 119.836 10.331C122.343 9.37528 124.665 7.85841 126.802 5.78038L133.269 13.4808C130.392 16.9321 127.056 19.5536 123.259 21.3454C119.474 23.0178 115.194 23.6156 110.417 23.1388Z" fill="#C467E0"></path> <path d="M110.375 51.7044C107.272 51.3782 104.505 50.7254 102.074 49.746C99.6556 48.6472 97.3691 47.4416 95.2145 46.1292C93.0599 44.8167 90.8331 43.6174 88.534 42.5311C86.235 41.4449 83.5937 40.7449 80.6101 40.4314C77.1491 40.0676 74.0966 40.4104 71.4524 41.4598C68.9401 42.4023 66.6101 43.907 64.4623 45.9738L57.8753 38.0418C60.8897 34.6182 64.2936 32.0801 68.0872 30.4276C72.0126 28.6682 76.4815 28.052 81.4939 28.5788C84.9548 28.9426 87.9541 29.6801 90.4919 30.7915C93.0296 31.9028 95.3758 33.1147 97.5304 34.4271C99.685 35.7395 101.852 36.9326 104.032 38.0063C106.224 38.9607 108.693 39.5821 111.438 39.8706C114.54 40.1968 117.348 39.8886 119.86 38.946C122.373 38.0034 124.703 36.4988 126.851 34.4319L133.277 42.1661C130.382 45.6023 127.032 48.2063 123.226 49.9782C119.432 51.6307 115.148 52.2061 110.375 51.7044Z" fill="#C467E0"></path> <path d="M166.033 72.4861C164.749 69.6425 163.917 66.9242 163.536 64.3312C163.265 61.6888 163.152 59.1064 163.198 56.5839C163.244 54.0615 163.156 51.5338 162.934 49.0007C162.712 46.4677 161.984 43.834 160.749 41.0998C159.317 37.9282 157.481 35.4655 155.241 33.712C153.16 32.0185 150.685 30.7659 147.817 29.9542L151.342 20.2652C155.819 21.1404 159.727 22.7988 163.068 25.2404C166.568 27.742 169.354 31.2895 171.428 35.8829C172.86 39.0546 173.737 42.0164 174.058 44.7681C174.379 47.5199 174.516 50.157 174.47 52.6795C174.424 55.2019 174.487 57.6749 174.66 60.0986C174.942 62.4729 175.651 64.9178 176.787 67.4333C178.07 70.2768 179.753 72.5454 181.834 74.2389C183.916 75.9325 186.39 77.1851 189.259 77.9967L185.823 87.4477C181.396 86.6818 177.457 85.1027 174.007 82.7105C170.666 80.269 168.008 76.8608 166.033 72.4861Z" fill="#C467E0"></path> <path d="M141.273 86.7321C140.004 83.8818 139.186 81.1592 138.819 78.5642C138.561 75.9204 138.462 73.3375 138.522 70.8153C138.581 68.2931 138.506 65.765 138.297 63.2308C138.088 60.6966 137.374 58.0592 136.154 55.3186C134.738 52.1395 132.915 49.6673 130.684 47.902C128.612 46.1976 126.144 44.9321 123.28 44.1054L126.856 34.4349C131.328 35.3336 135.228 37.0125 138.556 39.4715C142.042 41.9914 144.81 45.5534 146.86 50.1577C148.276 53.3368 149.137 56.3031 149.443 59.0565C149.749 61.8099 149.873 64.4477 149.814 66.9699C149.754 69.4921 149.805 71.9654 149.965 74.3899C150.234 76.7657 150.931 79.2142 152.053 81.7356C153.322 84.5859 154.993 86.8632 157.065 88.5677C159.138 90.2721 161.606 91.5376 164.47 92.3643L160.985 101.797C156.562 101.008 152.631 99.4084 149.194 96.9982C145.866 94.5391 143.226 91.1171 141.273 86.7321Z" fill="#C467E0"></path> <path d="M151.105 145.324C152.926 142.791 154.864 140.711 156.919 139.084C159.072 137.528 161.252 136.139 163.459 134.918C165.667 133.697 167.812 132.357 169.894 130.898C171.977 129.439 173.894 127.491 175.644 125.055C177.675 122.229 178.89 119.408 179.288 116.591C179.714 113.942 179.562 111.172 178.831 108.283L188.984 106.491C190.465 110.806 190.983 115.02 190.539 119.134C190.122 123.415 188.443 127.602 185.502 131.695C183.471 134.521 181.345 136.761 179.122 138.415C176.899 140.069 174.684 141.506 172.477 142.728C170.269 143.949 168.159 145.24 166.146 146.602C164.231 148.033 162.468 149.869 160.858 152.111C159.037 154.644 157.914 157.236 157.488 159.885C157.062 162.534 157.214 165.304 157.945 168.194L148.043 169.944C146.493 165.727 145.891 161.526 146.237 157.342C146.682 153.228 148.304 149.222 151.105 145.324Z" fill="#C467E0"></path> <path d="M126.388 131.005C128.222 128.481 130.171 126.411 132.234 124.795C134.395 123.25 136.582 121.873 138.796 120.663C141.01 119.454 143.162 118.125 145.252 116.677C147.343 115.229 149.27 113.292 151.033 110.864C153.078 108.049 154.308 105.234 154.721 102.42C155.161 99.7725 155.023 97.0023 154.307 94.1088L164.47 92.3703C165.927 96.6927 166.424 100.91 165.958 105.021C165.519 109.3 163.818 113.479 160.856 117.556C158.81 120.372 156.672 122.6 154.44 124.242C152.209 125.884 149.986 127.31 147.773 128.52C145.559 129.73 143.442 131.01 141.422 132.361C139.5 133.782 137.727 135.609 136.105 137.842C134.271 140.366 133.134 142.952 132.694 145.599C132.254 148.246 132.392 151.016 133.108 153.91L123.197 155.608C121.669 151.383 121.089 147.179 121.457 142.997C121.923 138.886 123.566 134.888 126.388 131.005Z" fill="#C467E0"></path> <path d="M80.5612 168.816C83.6657 169.126 86.436 169.764 88.8721 170.731C91.2962 171.817 93.589 173.01 95.7504 174.311C97.9119 175.613 100.145 176.8 102.45 177.874C104.754 178.949 107.399 179.635 110.384 179.933C113.847 180.278 116.898 179.919 119.537 178.856C122.044 177.901 124.366 176.384 126.503 174.306L133.131 182.203C130.135 185.642 126.744 188.198 122.96 189.871C119.043 191.651 114.578 192.29 109.563 191.79C106.1 191.444 103.097 190.722 100.553 189.624C98.0098 188.526 95.6573 187.327 93.4959 186.025C91.3344 184.724 89.161 183.543 86.9757 182.48C84.7785 181.537 82.3067 180.929 79.5604 180.655C76.4558 180.345 73.6498 180.668 71.1425 181.624C68.6352 182.579 66.3131 184.096 64.1761 186.174L57.7089 178.474C60.586 175.022 63.9228 172.401 67.7196 170.609C71.5044 168.937 75.7849 168.339 80.5612 168.816Z" fill="#C467E0"></path> <path d="M80.6036 140.25C83.7065 140.576 86.4735 141.229 88.9044 142.208C91.3228 143.307 93.6093 144.513 95.7639 145.825C97.9185 147.138 100.145 148.337 102.444 149.423C104.743 150.51 107.385 151.21 110.368 151.523C113.829 151.887 116.882 151.544 119.526 150.495C122.038 149.552 124.368 148.047 126.516 145.981L133.103 153.913C130.089 157.336 126.685 159.874 122.891 161.527C118.966 163.286 114.497 163.902 109.485 163.376C106.024 163.012 103.024 162.274 100.487 161.163C97.9488 160.052 95.6027 158.84 93.448 157.527C91.2934 156.215 89.1262 155.022 86.9465 153.948C84.7543 152.994 82.2857 152.372 79.5408 152.084C76.4379 151.758 73.6303 152.066 71.1181 153.008C68.6058 153.951 66.2757 155.456 64.1279 157.523L57.7011 149.788C60.5962 146.352 63.9467 143.748 67.7528 141.976C71.5463 140.324 75.8299 139.748 80.6036 140.25Z" fill="#C467E0"></path> <path d="M24.9453 119.468C26.2292 122.312 27.0616 125.03 27.4424 127.623C27.7138 130.266 27.8265 132.848 27.7805 135.371C27.7344 137.893 27.8224 140.421 28.0444 142.954C28.2665 145.487 28.9948 148.12 30.2293 150.855C31.6614 154.026 33.4975 156.489 35.7376 158.242C37.8189 159.936 40.2936 161.189 43.1617 162L39.6366 171.689C35.1597 170.814 31.251 169.156 27.9103 166.714C24.4108 164.213 21.6241 160.665 19.55 156.072C18.118 152.9 17.2415 149.938 16.9207 147.186C16.5999 144.435 16.4625 141.797 16.5086 139.275C16.5546 136.753 16.4913 134.28 16.3186 131.856C16.0366 129.482 15.3277 127.037 14.1919 124.521C12.908 121.678 11.2254 119.409 9.14404 117.716C7.06272 116.022 4.588 114.769 1.71989 113.958L5.15504 104.507C9.58248 105.273 13.5212 106.852 16.9713 109.244C20.312 111.685 22.97 115.094 24.9453 119.468Z" fill="#C467E0"></path> <path d="M49.705 105.222C50.974 108.073 51.7921 110.795 52.1594 113.39C52.417 116.034 52.5161 118.617 52.4569 121.139C52.3976 123.661 52.4723 126.19 52.6811 128.724C52.8899 131.258 53.6044 133.895 54.8246 136.636C56.2401 139.815 58.0632 142.287 60.2941 144.052C62.3665 145.757 64.8346 147.022 67.6984 147.849L64.1226 157.52C59.6505 156.621 55.7504 154.942 52.4226 152.483C48.9362 149.963 46.1681 146.401 44.1181 141.797C42.7027 138.618 41.8418 135.651 41.5354 132.898C41.229 130.145 41.1054 127.507 41.1647 124.985C41.2239 122.462 41.1736 119.989 41.0136 117.565C40.744 115.189 40.0479 112.74 38.9253 110.219C37.6563 107.369 35.9856 105.091 33.9131 103.387C31.8407 101.682 29.3726 100.417 26.5088 99.5902L29.9934 90.1574C34.4167 90.9465 38.3472 92.5461 41.7847 94.9563C45.1126 97.4153 47.7527 100.837 49.705 105.222Z" fill="#C467E0"></path> <path d="M39.8733 46.63C38.0527 49.1637 36.1148 51.2437 34.0595 52.87C31.9069 54.4263 29.7268 55.8151 27.5192 57.0364C25.3117 58.2577 23.1666 59.5978 21.084 61.0566C19.0013 62.5154 17.0847 64.463 15.3341 66.8992C13.3033 69.7253 12.0887 72.5467 11.6901 75.3634C11.2641 78.0126 11.4167 80.7821 12.1478 83.6718L1.99431 85.4635C0.513905 81.1488 -0.00424553 76.9345 0.439854 72.8206C0.856526 68.5392 2.53539 64.352 5.47643 60.2591C7.50716 57.4331 9.63387 55.1932 11.8566 53.5395C14.0793 51.8857 16.2944 50.4482 18.5019 49.2269C20.7094 48.0055 22.8195 46.7142 24.8321 45.3528C26.7473 43.9214 28.5102 42.085 30.1207 39.8437C31.9414 37.31 33.0647 34.7185 33.4907 32.0693C33.9167 29.42 33.7641 26.6506 33.033 23.7609L42.9353 22.0103C44.4857 26.2276 45.0876 30.4281 44.741 34.6121C44.2969 38.726 42.6743 42.732 39.8733 46.63Z" fill="#C467E0"></path> <path d="M64.5906 60.9495C62.7567 63.4737 60.8079 65.5435 58.7442 67.159C56.5834 68.704 54.396 70.0813 52.1822 71.2911C49.9683 72.5008 47.8162 73.8297 45.7259 75.2776C43.6357 76.7255 41.7089 78.663 39.9455 81.09C37.9 83.9054 36.6706 86.7204 36.2573 89.535C35.8174 92.182 35.9555 94.9522 36.6715 97.8456L26.5087 99.5841C25.051 95.2618 24.5549 91.0448 25.0205 86.9333C25.4596 82.6541 27.1604 78.4758 30.1228 74.3984C32.1683 71.583 34.3067 69.3543 36.538 67.7122C38.7693 66.0701 40.992 64.6442 43.2058 63.4345C45.4197 62.2247 47.5365 60.9444 49.5563 59.5936C51.4789 58.1723 53.2514 56.3451 54.8737 54.1123C56.7075 51.5881 57.8444 49.0026 58.2843 46.3556C58.7242 43.7086 58.5861 40.9384 57.8701 38.0449L67.7814 36.3462C69.3098 40.5715 69.8896 44.7752 69.5211 48.9573C69.0554 53.0688 67.412 57.0662 64.5906 60.9495Z" fill="#C467E0"></path> <path d="M225.692 163.777V24.9772H244.492V163.777H225.692ZM238.492 102.777V85.5772H310.892V102.777H238.492ZM238.492 42.1772V24.9772H314.292V42.1772H238.492Z" fill="white"></path> <path d="M372.267 165.777C363.601 165.777 355.734 163.644 348.667 159.377C341.601 154.977 336.001 149.044 331.867 141.577C327.867 134.111 325.867 125.711 325.867 116.377C325.867 107.044 327.867 98.6439 331.867 91.1772C336.001 83.7106 341.534 77.7772 348.467 73.3772C355.534 68.9772 363.467 66.7772 372.267 66.7772C379.467 66.7772 385.867 68.3106 391.467 71.3772C397.201 74.3106 401.801 78.4439 405.267 83.7772C408.734 88.9772 410.667 95.0439 411.067 101.977V130.577C410.667 137.377 408.734 143.444 405.267 148.777C401.934 154.111 397.401 158.311 391.667 161.377C386.067 164.311 379.601 165.777 372.267 165.777ZM375.267 148.777C384.201 148.777 391.401 145.777 396.867 139.777C402.334 133.644 405.067 125.844 405.067 116.377C405.067 109.844 403.801 104.177 401.267 99.3772C398.867 94.4439 395.401 90.6439 390.867 87.9772C386.334 85.1772 381.067 83.7772 375.067 83.7772C369.067 83.7772 363.734 85.1772 359.067 87.9772C354.534 90.7772 350.934 94.6439 348.267 99.5772C345.734 104.377 344.467 109.911 344.467 116.177C344.467 122.577 345.734 128.244 348.267 133.177C350.934 137.977 354.601 141.777 359.267 144.577C363.934 147.377 369.267 148.777 375.267 148.777ZM403.867 163.777V138.177L407.267 114.977L403.867 91.9772V68.7772H422.067V163.777H403.867Z" fill="white"></path> <path d="M448.474 163.777V68.7772H466.474V163.777H448.474ZM457.474 49.7772C454.14 49.7772 451.407 48.7106 449.274 46.5772C447.14 44.3106 446.074 41.5106 446.074 38.1772C446.074 34.9772 447.14 32.3106 449.274 30.1772C451.407 27.9106 454.14 26.7772 457.474 26.7772C460.807 26.7772 463.54 27.9106 465.674 30.1772C467.807 32.3106 468.874 34.9772 468.874 38.1772C468.874 41.5106 467.807 44.3106 465.674 46.5772C463.54 48.7106 460.807 49.7772 457.474 49.7772Z" fill="white"></path> <path d="M493 163.777V68.7772H511V163.777H493ZM511 109.577L504.2 106.577C504.2 94.4439 507 84.7772 512.6 77.5772C518.2 70.3772 526.267 66.7772 536.8 66.7772C541.6 66.7772 545.934 67.6439 549.8 69.3772C553.667 70.9772 557.267 73.7106 560.6 77.5772L548.8 89.7772C546.8 87.6439 544.6 86.1106 542.2 85.1772C539.8 84.2439 537 83.7772 533.8 83.7772C527.134 83.7772 521.667 85.9106 517.4 90.1772C513.134 94.4439 511 100.911 511 109.577Z" fill="white"></path> <path d="M642.989 165.777C632.989 165.777 623.723 163.977 615.189 160.377C606.656 156.644 599.189 151.511 592.789 144.977C586.523 138.444 581.656 130.844 578.189 122.177C574.723 113.511 572.989 104.244 572.989 94.3772C572.989 84.3772 574.723 75.0439 578.189 66.3772C581.656 57.7106 586.523 50.1772 592.789 43.7772C599.189 37.2439 606.589 32.1772 614.989 28.5772C623.523 24.8439 632.789 22.9772 642.789 22.9772C653.723 22.9772 663.323 24.8439 671.589 28.5772C679.856 32.3106 687.189 37.3772 693.589 43.7772L680.589 56.7772C676.189 51.8439 670.789 47.9772 664.389 45.1772C658.123 42.3772 650.923 40.9772 642.789 40.9772C635.456 40.9772 628.723 42.3106 622.589 44.9772C616.456 47.5106 611.123 51.1772 606.589 55.9772C602.056 60.7772 598.523 66.4439 595.989 72.9772C593.589 79.5106 592.389 86.6439 592.389 94.3772C592.389 102.111 593.589 109.244 595.989 115.777C598.523 122.311 602.056 127.977 606.589 132.777C611.123 137.577 616.456 141.311 622.589 143.977C628.723 146.511 635.456 147.777 642.789 147.777C651.456 147.777 658.989 146.377 665.389 143.577C671.789 140.644 677.189 136.711 681.589 131.777L694.589 144.577C688.189 151.244 680.656 156.444 671.989 160.177C663.456 163.911 653.789 165.777 642.989 165.777Z" fill="white"></path> <path d="M754.564 165.777C745.231 165.777 736.831 163.577 729.364 159.177C721.898 154.777 715.964 148.844 711.564 141.377C707.164 133.777 704.964 125.311 704.964 115.977C704.964 106.777 707.164 98.5106 711.564 91.1772C715.964 83.7106 721.898 77.7772 729.364 73.3772C736.831 68.9772 745.231 66.7772 754.564 66.7772C763.764 66.7772 772.098 68.9772 779.564 73.3772C787.164 77.6439 793.164 83.5106 797.564 90.9772C801.964 98.4439 804.164 106.777 804.164 115.977C804.164 125.311 801.964 133.777 797.564 141.377C793.164 148.844 787.164 154.777 779.564 159.177C772.098 163.577 763.764 165.777 754.564 165.777ZM754.564 148.377C760.564 148.377 765.898 146.977 770.564 144.177C775.231 141.377 778.898 137.577 781.564 132.777C784.231 127.844 785.564 122.244 785.564 115.977C785.564 109.844 784.164 104.377 781.364 99.5772C778.698 94.7772 775.031 91.0439 770.364 88.3772C765.831 85.5772 760.564 84.1772 754.564 84.1772C748.564 84.1772 743.231 85.5772 738.564 88.3772C733.898 91.0439 730.231 94.7772 727.564 99.5772C724.898 104.377 723.564 109.844 723.564 115.977C723.564 122.244 724.898 127.844 727.564 132.777C730.231 137.577 733.898 141.377 738.564 144.177C743.231 146.977 748.564 148.377 754.564 148.377Z" fill="white"></path> <path d="M824.445 163.777V68.7772H842.445V163.777H824.445ZM888.646 163.777V106.377C888.646 99.3106 886.446 93.7772 882.046 89.7772C877.779 85.6439 872.379 83.5772 865.846 83.5772C861.446 83.5772 857.512 84.5106 854.046 86.3772C850.579 88.2439 847.779 90.8439 845.646 94.1772C843.512 97.5106 842.445 101.511 842.445 106.177L835.046 102.577C835.046 95.3772 836.579 89.1106 839.646 83.7772C842.846 78.4439 847.179 74.3106 852.646 71.3772C858.112 68.3106 864.246 66.7772 871.046 66.7772C877.712 66.7772 883.712 68.2439 889.046 71.1772C894.512 74.1106 898.779 78.2439 901.846 83.5772C905.046 88.9106 906.646 95.2439 906.646 102.577V163.777H888.646ZM952.846 163.777V106.377C952.846 99.3106 950.645 93.7772 946.245 89.7772C941.979 85.6439 936.645 83.5772 930.245 83.5772C925.845 83.5772 921.845 84.5106 918.245 86.3772C914.779 88.2439 911.979 90.8439 909.846 94.1772C907.712 97.5106 906.646 101.511 906.646 106.177L896.445 102.577C896.845 95.2439 898.779 88.9772 902.245 83.7772C905.845 78.4439 910.446 74.3106 916.046 71.3772C921.646 68.3106 927.779 66.7772 934.445 66.7772C941.379 66.7772 947.579 68.2439 953.046 71.1772C958.512 74.1106 962.846 78.2439 966.046 83.5772C969.379 88.9106 971.046 95.3106 971.046 102.777V163.777H952.846Z" fill="white"></path> <path d="M1045.54 165.777C1038.34 165.777 1031.81 164.311 1025.94 161.377C1020.21 158.311 1015.61 154.111 1012.14 148.777C1008.67 143.444 1006.74 137.377 1006.34 130.577V101.977C1006.74 95.0439 1008.67 88.9772 1012.14 83.7772C1015.74 78.4439 1020.41 74.3106 1026.14 71.3772C1032.01 68.3106 1038.47 66.7772 1045.54 66.7772C1054.21 66.7772 1062.01 68.9772 1068.94 73.3772C1076.01 77.7772 1081.54 83.7106 1085.54 91.1772C1089.54 98.6439 1091.54 107.044 1091.54 116.377C1091.54 125.711 1089.54 134.111 1085.54 141.577C1081.54 149.044 1076.01 154.977 1068.94 159.377C1062.01 163.644 1054.21 165.777 1045.54 165.777ZM995.539 203.577V68.7772H1013.54V93.7772L1010.14 116.777L1013.54 139.977V203.577H995.539ZM1042.54 148.777C1048.54 148.777 1053.81 147.377 1058.34 144.577C1062.87 141.777 1066.47 137.977 1069.14 133.177C1071.81 128.244 1073.14 122.577 1073.14 116.177C1073.14 109.911 1071.81 104.311 1069.14 99.3772C1066.47 94.4439 1062.87 90.6439 1058.34 87.9772C1053.81 85.1772 1048.61 83.7772 1042.74 83.7772C1036.74 83.7772 1031.47 85.1772 1026.94 87.9772C1022.41 90.6439 1018.87 94.4439 1016.34 99.3772C1013.81 104.311 1012.54 109.977 1012.54 116.377C1012.54 122.644 1013.74 128.244 1016.14 133.177C1018.67 137.977 1022.21 141.777 1026.74 144.577C1031.41 147.377 1036.67 148.777 1042.54 148.777Z" fill="white"></path> <path d="M1150.15 165.777C1142.41 165.777 1135.41 164.044 1129.15 160.577C1123.01 156.977 1118.21 152.044 1114.75 145.777C1111.28 139.511 1109.55 132.244 1109.55 123.977V68.7772H1127.55V123.177C1127.55 128.377 1128.41 132.911 1130.15 136.777C1132.01 140.511 1134.68 143.377 1138.15 145.377C1141.61 147.377 1145.68 148.377 1150.35 148.377C1157.41 148.377 1162.95 146.177 1166.95 141.777C1170.95 137.244 1172.95 131.044 1172.95 123.177V68.7772H1190.95V123.977C1190.95 132.244 1189.21 139.511 1185.75 145.777C1182.28 152.044 1177.48 156.977 1171.35 160.577C1165.35 164.044 1158.28 165.777 1150.15 165.777Z" fill="white"></path> <path d="M1229.67 163.777V28.9772H1247.67V163.777H1229.67ZM1206.27 85.1772V68.7772H1271.07V85.1772H1206.27Z" fill="white"></path> <path d="M1329.77 165.777C1320.31 165.777 1311.77 163.644 1304.17 159.377C1296.57 154.977 1290.57 149.044 1286.17 141.577C1281.77 134.111 1279.57 125.644 1279.57 116.177C1279.57 106.844 1281.71 98.4439 1285.97 90.9772C1290.37 83.5106 1296.24 77.6439 1303.57 73.3772C1311.04 68.9772 1319.37 66.7772 1328.57 66.7772C1337.37 66.7772 1345.11 68.7772 1351.77 72.7772C1358.57 76.7772 1363.84 82.3106 1367.57 89.3772C1371.44 96.4439 1373.37 104.444 1373.37 113.377C1373.37 114.711 1373.31 116.177 1373.17 117.777C1373.04 119.244 1372.77 120.977 1372.37 122.977H1292.17V107.977H1362.77L1356.17 113.777C1356.17 107.377 1355.04 101.977 1352.77 97.5772C1350.51 93.0439 1347.31 89.5772 1343.17 87.1772C1339.04 84.6439 1334.04 83.3772 1328.17 83.3772C1322.04 83.3772 1316.64 84.7106 1311.97 87.3772C1307.31 90.0439 1303.71 93.7772 1301.17 98.5772C1298.64 103.377 1297.37 109.044 1297.37 115.577C1297.37 122.244 1298.71 128.111 1301.37 133.177C1304.04 138.111 1307.84 141.977 1312.77 144.777C1317.71 147.444 1323.37 148.777 1329.77 148.777C1335.11 148.777 1339.97 147.844 1344.37 145.977C1348.91 144.111 1352.77 141.311 1355.97 137.577L1367.57 149.377C1363.04 154.711 1357.44 158.777 1350.77 161.577C1344.24 164.377 1337.24 165.777 1329.77 165.777Z" fill="white"></path> </svg> 